<?xml version="1.0"?>
<svg 
  xmlns="http://www.w3.org/2000/svg" 
  xmlns:xlink="http://www.w3.org/1999/xlink" 
  id="svg3523" 
  viewBox="0 0 300 300" 
  version="1.0"
  >
  <defs id="defs3525">
    <linearGradient id="linearGradient2332" y2="515.88" gradientUnits="userSpaceOnUse" x2="311.82" y1="414.34" x1="238.13">
      <stop id="stop2328" stop-color="#fff" offset="0"/>
      <stop id="stop2330" stop-color="#7d7d7d" stop-opacity=".98824" offset="1"/>
    </linearGradient>
    <linearGradient id="linearGradient2300" y2="265.17" gradientUnits="userSpaceOnUse" x2="97.051" y1="417.04" x1="204.89">
      <stop id="stop2296" offset="0"/>
      <stop id="stop2298" stop-color="#fff" stop-opacity="0" offset="1"/>
    </linearGradient>
  </defs>
  <g id="layer1" transform="translate(-232.89 -306.61)">
    <g id="g2336" transform="matrix(1.0074 0 0 .97321 143.35 58.093)">
      <path id="path1334" style="color:#000000" d="m237.03 535.89c-34.69-0.38-62.85-28.54-62.85-63.24s28.16-62.86 62.85-63c34.7-0.14 62.86-28.3 62.86-63s-28.16-62.86-62.86-63.56c-66.99-0.71-121.36 56.08-121.36 126.05s54.37 126.75 121.36 126.75z" stroke="#000" stroke-width="4" fill="url(#linearGradient2300)"/>
      <path id="path2238" style="color:#000000" d="m238.52 283.08c34.7 0.39 62.86 28.55 62.86 63.25 0 34.69-28.16 62.85-62.86 63-34.69 0.14-62.85 28.3-62.85 63 0 34.69 28.16 62.85 62.85 63.56 67 0.7 121.37-56.08 121.37-126.05s-54.37-126.76-121.37-126.76z" stroke="#000" stroke-width="4" fill="url(#linearGradient2332)"/>
      <g id="g2322">
        <path id="path2240" d="m-125.81 288.98a7.6383 7.6383 0 1 1 -15.27 0 7.6383 7.6383 0 1 1 15.27 0z" style="color:#000000" transform="matrix(1.8235 0 0 1.8235 481.45 -57.363)"/>
        <path id="path2304" d="m-125.81 288.98a7.6383 7.6383 0 1 1 -15.27 0 7.6383 7.6383 0 1 1 15.27 0z" style="color:#000000" fill="#fff" transform="matrix(1.8235 0 0 1.8235 481.45 -184.97)"/>
      </g>
    </g>
  </g>
</svg>
